<?xml version="1.0" encoding="UTF-8" standalone="no"?>
<svg
   xmlns:dc="http://purl.org/dc/elements/1.1/"
   xmlns:cc="http://creativecommons.org/ns#"
   xmlns:rdf="http://www.w3.org/1999/02/22-rdf-syntax-ns#"
   xmlns:svg="http://www.w3.org/2000/svg"
   xmlns="http://www.w3.org/2000/svg"
   viewBox="0 0 785 311.25"
   height="311.25"
   width="785"
   xml:space="preserve"
   version="1.1"
   id="svg2"><metadata
     id="metadata8"><rdf:RDF><cc:Work
         rdf:about=""><dc:format>image/svg+xml</dc:format><dc:type
           rdf:resource="http://purl.org/dc/dcmitype/StillImage" /><dc:title></dc:title></cc:Work></rdf:RDF></metadata><defs
     id="defs6" /><g
     transform="matrix(1.25,0,0,-1.25,0,311.25)"
     id="g10"><g
       transform="scale(0.1,0.1)"
       id="g12"><path
         id="path14"
         style="fill:#ffc0cb;fill-opacity:1;fill-rule:evenodd;stroke:none"
         d="m 2594.37,1621.39 c 234.38,0 156.25,0 312.51,0 156.26,0 -234.38,312.52 156.26,312.52 390.65,0 0,-312.52 156.26,-312.52 156.26,0 234.39,0 312.51,0 0,-78.13 0,-156.26 0,-312.51 0,-156.26 312.52,234.38 312.52,-156.26 0,-390.643 -312.52,0 -312.52,-156.257 0,-156.258 0,-234.386 0,-312.515 -78.12,0 -156.25,0 -312.51,0 -156.26,0 234.39,312.515 -156.26,312.515 -390.64,0 0,-312.515 -156.26,-312.515 -156.26,0 -234.38,0 -312.51,0 0,78.129 0,156.257 0,312.515 0,156.257 -312.52,-234.386 -312.52,156.257 0,390.64 312.52,0 312.52,156.26 0,156.25 0,234.38 0,312.51" /><path
         id="path16"
         style="fill:none;stroke:#000000;stroke-width:28.34600067;stroke-linecap:butt;stroke-linejoin:miter;stroke-miterlimit:10;stroke-dasharray:none;stroke-opacity:1"
         d="m 2594.37,1621.39 c 234.38,0 156.25,0 312.51,0 156.26,0 -234.38,312.52 156.26,312.52 390.65,0 0,-312.52 156.26,-312.52 156.26,0 234.39,0 312.51,0 0,-78.13 0,-156.26 0,-312.51 0,-156.26 312.52,234.38 312.52,-156.26 0,-390.643 -312.52,0 -312.52,-156.257 0,-156.258 0,-234.386 0,-312.515 -78.12,0 -156.25,0 -312.51,0 -156.26,0 234.39,312.515 -156.26,312.515 -390.64,0 0,-312.515 -156.26,-312.515 -156.26,0 -234.38,0 -312.51,0 0,78.129 0,156.257 0,312.515 0,156.257 -312.52,-234.386 -312.52,156.257 0,390.64 312.52,0 312.52,156.26 0,156.25 0,234.38 0,312.51" /><path
         id="path18"
         style="fill:none;stroke:#000000;stroke-width:2.83459997;stroke-linecap:butt;stroke-linejoin:miter;stroke-miterlimit:10;stroke-dasharray:none;stroke-opacity:1"
         d="m 2594.37,1621.39 c 234.38,0 156.25,0 312.51,0 156.26,0 -234.38,312.52 156.26,312.52 390.65,0 0,-312.52 156.26,-312.52 156.26,0 234.39,0 312.51,0 0,-78.13 0,-156.26 0,-312.51 0,-156.26 312.52,234.38 312.52,-156.26 0,-390.643 -312.52,0 -312.52,-156.257 0,-156.258 0,-234.386 0,-312.515 -78.12,0 -156.25,0 -312.51,0 -156.26,0 234.39,312.515 -156.26,312.515 -390.64,0 0,-312.515 -156.26,-312.515 -156.26,0 -234.38,0 -312.51,0 0,78.129 0,156.257 0,312.515 0,156.257 -312.52,-234.386 -312.52,156.257 0,390.64 312.52,0 312.52,156.26 0,156.25 0,234.38 0,312.51" /><path
         id="path20"
         style="fill:#add8e6;fill-opacity:1;fill-rule:evenodd;stroke:none"
         d="m 333.066,1615.01 c 239.168,0 159.446,0 318.891,0 159.449,0 -239.168,318.9 159.449,318.9 398.614,0 0,-318.9 159.446,-318.9 159.448,0 239.168,0 318.888,0 0,-79.72 0,-159.44 0,-318.89 0,-159.44 -318.888,239.17 -318.888,-159.44 0,-398.621 318.888,0 318.888,-159.45 0,-159.449 0,-239.171 0,-318.894 -79.72,0 -159.44,0 -318.888,0 -159.446,0 239.168,318.894 -159.446,318.894 -398.617,0 0,-318.894 -159.449,-318.894 -159.445,0 -239.168,0 -318.891,0 0,79.723 0,159.445 0,318.894 0,159.45 -318.8941,-239.171 -318.8941,159.45 0,398.61 318.8941,0 318.8941,159.44 0,159.45 0,239.17 0,318.89" /><path
         id="path22"
         style="fill:none;stroke:#000000;stroke-width:28.34600067;stroke-linecap:butt;stroke-linejoin:miter;stroke-miterlimit:10;stroke-dasharray:none;stroke-opacity:1"
         d="m 333.066,1615.01 c 239.168,0 159.446,0 318.891,0 159.449,0 -239.168,318.9 159.449,318.9 398.614,0 0,-318.9 159.446,-318.9 159.448,0 239.168,0 318.888,0 0,-79.72 0,-159.44 0,-318.89 0,-159.44 -318.888,239.17 -318.888,-159.44 0,-398.621 318.888,0 318.888,-159.45 0,-159.449 0,-239.171 0,-318.894 -79.72,0 -159.44,0 -318.888,0 -159.446,0 239.168,318.894 -159.446,318.894 -398.617,0 0,-318.894 -159.449,-318.894 -159.445,0 -239.168,0 -318.891,0 0,79.723 0,159.445 0,318.894 0,159.45 -318.8941,-239.171 -318.8941,159.45 0,398.61 318.8941,0 318.8941,159.44 0,159.45 0,239.17 0,318.89" /><path
         id="path24"
         style="fill:none;stroke:#000000;stroke-width:2.83459997;stroke-linecap:butt;stroke-linejoin:miter;stroke-miterlimit:10;stroke-dasharray:none;stroke-opacity:1"
         d="m 333.066,1615.01 c 239.168,0 159.446,0 318.891,0 159.449,0 -239.168,318.9 159.449,318.9 398.614,0 0,-318.9 159.446,-318.9 159.448,0 239.168,0 318.888,0 0,-79.72 0,-159.44 0,-318.89 0,-159.44 -318.888,239.17 -318.888,-159.44 0,-398.621 318.888,0 318.888,-159.45 0,-159.449 0,-239.171 0,-318.894 -79.72,0 -159.44,0 -318.888,0 -159.446,0 239.168,318.894 -159.446,318.894 -398.617,0 0,-318.894 -159.449,-318.894 -159.445,0 -239.168,0 -318.891,0 0,79.723 0,159.445 0,318.894 0,159.45 -318.8941,-239.171 -318.8941,159.45 0,398.61 318.8941,0 318.8941,159.44 0,159.45 0,239.17 0,318.89" /><path
         id="path26"
         style="fill:#ffa500;fill-opacity:1;fill-rule:evenodd;stroke:none"
         d="m 4832.99,1615.01 c 239.17,0 159.45,0 318.9,0 159.44,0 -239.17,318.9 159.44,318.9 398.62,0 0,-318.9 159.45,-318.9 159.45,0 239.17,0 318.89,0 0,-79.72 0,-159.44 0,-318.89 0,-159.44 318.89,239.17 318.89,-159.44 0,-398.621 -318.89,0 -318.89,-159.45 0,-159.449 0,-239.171 0,-318.894 -79.72,0 -159.44,0 -318.89,0 -159.45,0 239.17,318.894 -159.45,318.894 -398.61,0 0,-318.894 -159.44,-318.894 -159.45,0 -239.17,0 -318.9,0 0,79.723 0,159.445 0,318.894 0,159.45 318.9,-239.171 318.9,159.45 0,398.61 -318.9,0 -318.9,159.44 0,159.45 0,239.17 0,318.89" /><path
         id="path28"
         style="fill:none;stroke:#000000;stroke-width:28.34600067;stroke-linecap:butt;stroke-linejoin:miter;stroke-miterlimit:10;stroke-dasharray:none;stroke-opacity:1"
         d="m 4832.99,1615.01 c 239.17,0 159.45,0 318.9,0 159.44,0 -239.17,318.9 159.44,318.9 398.62,0 0,-318.9 159.45,-318.9 159.45,0 239.17,0 318.89,0 0,-79.72 0,-159.44 0,-318.89 0,-159.44 318.89,239.17 318.89,-159.44 0,-398.621 -318.89,0 -318.89,-159.45 0,-159.449 0,-239.171 0,-318.894 -79.72,0 -159.44,0 -318.89,0 -159.45,0 239.17,318.894 -159.45,318.894 -398.61,0 0,-318.894 -159.44,-318.894 -159.45,0 -239.17,0 -318.9,0 0,79.723 0,159.445 0,318.894 0,159.45 318.9,-239.171 318.9,159.45 0,398.61 -318.9,0 -318.9,159.44 0,159.45 0,239.17 0,318.89" /><path
         id="path30"
         style="fill:none;stroke:#000000;stroke-width:2.83459997;stroke-linecap:butt;stroke-linejoin:miter;stroke-miterlimit:10;stroke-dasharray:none;stroke-opacity:1"
         d="m 4832.99,1615.01 c 239.17,0 159.45,0 318.9,0 159.44,0 -239.17,318.9 159.44,318.9 398.62,0 0,-318.9 159.45,-318.9 159.45,0 239.17,0 318.89,0 0,-79.72 0,-159.44 0,-318.89 0,-159.44 318.89,239.17 318.89,-159.44 0,-398.621 -318.89,0 -318.89,-159.45 0,-159.449 0,-239.171 0,-318.894 -79.72,0 -159.44,0 -318.89,0 -159.45,0 239.17,318.894 -159.45,318.894 -398.61,0 0,-318.894 -159.44,-318.894 -159.45,0 -239.17,0 -318.9,0 0,79.723 0,159.445 0,318.894 0,159.45 318.9,-239.171 318.9,159.45 0,398.61 -318.9,0 -318.9,159.44 0,159.45 0,239.17 0,318.89" /><g
         transform="scale(10,10)"
         id="g32"><text
           id="text34"
           style="font-variant:normal;font-weight:normal;font-size:29.76329994px;font-family:Helvetica;-inkscape-font-specification:Helvetica;writing-mode:lr-tb;fill:#000000;fill-opacity:1;fill-rule:nonzero;stroke:none"
           transform="matrix(1,0,0,-1,18.425,216.068)"><tspan
             id="tspan36"
             y="0"
             x="0 23.155848 39.704243 56.252636 72.801033 82.712212 99.260605 105.86806 112.47551 120.74971 456.3696 476.22174 484.49594 492.77011 499.37756 514.25922 520.8667 537.4151 553.96344 568.84509">GeneralityEfficiency</tspan><tspan
             id="tspan38"
             y="192.75301"
             x="172.911 194.4001 210.9485 227.49689 244.04529 252.31949 275.47534 292.02371 308.57211 325.12051 335.03171 351.58008 359.85428 366.46173 383.01013">Code Generation</tspan></text>
</g></g></g></svg>