<?xml version="1.0" encoding="UTF-8" standalone="no"?>
<svg
   xmlns:dc="http://purl.org/dc/elements/1.1/"
   xmlns:cc="http://creativecommons.org/ns#"
   xmlns:rdf="http://www.w3.org/1999/02/22-rdf-syntax-ns#"
   xmlns:svg="http://www.w3.org/2000/svg"
   xmlns="http://www.w3.org/2000/svg"
   viewBox="0 0 982.5 595"
   height="595"
   width="982.5"
   xml:space="preserve"
   version="1.1"
   id="svg2"><metadata
     id="metadata8"><rdf:RDF><cc:Work
         rdf:about=""><dc:format>image/svg+xml</dc:format><dc:type
           rdf:resource="http://purl.org/dc/dcmitype/StillImage" /><dc:title></dc:title></cc:Work></rdf:RDF></metadata><defs
     id="defs6" /><g
     transform="matrix(1.25,0,0,-1.25,0,595)"
     id="g10"><g
       id="g12"><path
         id="path14"
         style="fill:#ffffff;fill-opacity:1;fill-rule:nonzero;stroke:none"
         d="m 36,440 714,0 0,-404 -714,0 0,404 z" /><path
         id="path16"
         style="fill:none;stroke:#000000;stroke-width:1;stroke-linecap:butt;stroke-linejoin:round;stroke-miterlimit:10;stroke-dasharray:none;stroke-opacity:1"
         d="m 443,436 124,0 0,-36 -124,0 0,36 z" /><text
         id="text18"
         style="font-variant:normal;font-size:14.00024414px;font-family:'Nimbus Roman No9 L';-inkscape-font-specification:NimbusRomNo9L-Regu;writing-mode:lr-tb;fill:#000000;fill-opacity:1;fill-rule:nonzero;stroke:none"
         transform="matrix(1,0,0,-1,451,414.30078)"><tspan
           id="tspan20"
           y="0"
           x="0 7.5041308 14.252249 18.746326 28.504498 34.496601 39.004681 45.752796 49.504864 54.754955 58.507019 69.749214 76.51133 80.249397 86.255501 90.007568 93.759636 100.50775">Forward simulation</tspan></text>
<path
         id="path22"
         style="fill:none;stroke:#000000;stroke-width:1;stroke-linecap:butt;stroke-linejoin:round;stroke-miterlimit:10;stroke-dasharray:none;stroke-opacity:1"
         d="m 445.5,364 119,0 0,-36 -119,0 0,36 z" /><text
         id="text24"
         style="font-variant:normal;font-size:14.00024414px;font-family:'Nimbus Roman No9 L';-inkscape-font-specification:NimbusRomNo9L-Regu;writing-mode:lr-tb;fill:#000000;fill-opacity:1;fill-rule:nonzero;stroke:none"
         transform="matrix(1,0,0,-1,453.5,342.30078)"><tspan
           id="tspan26"
           y="0"
           x="0 9.7441702 16.506289 20.244352 27.00647 30.758535 37.506653 41.25872 44.996784 50.246876 53.99894 65.255135 72.003258 75.755318 81.761421 85.499489 89.251556 95.999672">Adjoint simulation</tspan></text>
<path
         id="path28"
         style="fill:none;stroke:#000000;stroke-width:1;stroke-linecap:butt;stroke-linejoin:round;stroke-miterlimit:10;stroke-dasharray:none;stroke-opacity:1"
         d="m 505,399.695 c 0,-7.711 0,-16.984 0,-25.582" /><path
         id="path30"
         style="fill:#000000;fill-opacity:1;fill-rule:nonzero;stroke:#000000;stroke-width:1;stroke-linecap:butt;stroke-linejoin:round;stroke-miterlimit:10;stroke-dasharray:none;stroke-opacity:1"
         d="m 508.5,374.105 -3.5,-10 -3.5,10 7,0 z" /><path
         id="path32"
         style="fill:none;stroke:#000000;stroke-width:1;stroke-linecap:butt;stroke-linejoin:round;stroke-miterlimit:10;stroke-dasharray:none;stroke-opacity:1"
         d="m 356,292 144,0 0,-36 -144,0 0,36 z" /><text
         id="text34"
         style="font-variant:normal;font-size:14.00024414px;font-family:'Nimbus Roman No9 L';-inkscape-font-specification:NimbusRomNo9L-Regu;writing-mode:lr-tb;fill:#000000;fill-opacity:1;fill-rule:nonzero;stroke:none"
         transform="matrix(1,0,0,-1,364,270.30078)"><tspan
           id="tspan36"
           y="0"
           x="0 7.5041308 11.256196 22.498392 29.24651 32.998573 39.004681 42.756744 46.508812 53.256927 60.005047 63.757111 69.007202 74.999306 81.761421 87.011513 90.74958 94.501648 98.253716 105.00183 108.7539 112.50596 116.25803 122.26413">Simulation sensitivities</tspan></text>
<path
         id="path38"
         style="fill:none;stroke:#000000;stroke-width:1;stroke-linecap:butt;stroke-linejoin:round;stroke-miterlimit:10;stroke-dasharray:none;stroke-opacity:1"
         d="m 485.965,327.695 c -9.508,-8.644 -21.172,-19.246 -31.535,-28.668" /><path
         id="path40"
         style="fill:#000000;fill-opacity:1;fill-rule:nonzero;stroke:#000000;stroke-width:1;stroke-linecap:butt;stroke-linejoin:round;stroke-miterlimit:10;stroke-dasharray:none;stroke-opacity:1"
         d="m 456.57,296.242 -9.754,-4.137 5.043,9.317 4.711,-5.18 z" /><path
         id="path42"
         style="fill:none;stroke:#c0c0c0;stroke-width:1;stroke-linecap:butt;stroke-linejoin:round;stroke-miterlimit:10;stroke-dasharray:none;stroke-opacity:1"
         d="m 529,292 106,0 0,-36 -106,0 0,36 z" /><text
         id="text44"
         style="font-variant:normal;font-size:14.00024414px;font-family:'Nimbus Roman No9 L';-inkscape-font-specification:NimbusRomNo9L-Regu;writing-mode:lr-tb;fill:#c0c0c0;fill-opacity:1;fill-rule:nonzero;stroke:none"
         transform="matrix(1,0,0,-1,537,270.30078)"><tspan
           id="tspan46"
           y="0"
           x="0 8.2461433 12.754222 17.248301 23.996418 28.504498 32.256561 38.248665 43.498756 47.250824 51.002888 62.259087 68.25119 72.003258 75.755318 82.503441">Error estimation</tspan></text>
<path
         id="path48"
         style="fill:none;stroke:#000000;stroke-width:1;stroke-linecap:butt;stroke-linejoin:round;stroke-miterlimit:10;stroke-dasharray:none;stroke-opacity:1"
         d="m 524.035,327.695 c 9.508,-8.644 21.172,-19.246 31.535,-28.668" /><path
         id="path50"
         style="fill:#000000;fill-opacity:1;fill-rule:nonzero;stroke:#000000;stroke-width:1;stroke-linecap:butt;stroke-linejoin:round;stroke-miterlimit:10;stroke-dasharray:none;stroke-opacity:1"
         d="m 558.141,301.422 5.043,-9.317 -9.754,4.137 4.711,5.18 z" /><path
         id="path52"
         style="fill:none;stroke:#000000;stroke-width:1;stroke-linecap:butt;stroke-linejoin:round;stroke-miterlimit:10;stroke-dasharray:none;stroke-opacity:1"
         d="m 340,220 176,0 0,-36 -176,0 0,36 z" /><text
         id="text54"
         style="font-variant:normal;font-size:14.00024414px;font-family:'Nimbus Roman No9 L';-inkscape-font-specification:NimbusRomNo9L-Regu;writing-mode:lr-tb;fill:#000000;fill-opacity:1;fill-rule:nonzero;stroke:none"
         transform="matrix(1,0,0,-1,348,198.30078)"><tspan
           id="tspan56"
           y="0"
           x="0 9.7441702 15.750275 22.498392 28.504498 32.998573 39.004681 42.756744 46.508812 51.758904 57.751007 64.499123 68.25119 73.501282 77.253349 83.259453 90.007568 93.759636 97.511696 101.24976 105.00183 111.76395 115.50201 121.50812 128.25624 134.26234 138.0144 144.76253 150.01262 153.76468">Generalised stability analysis</tspan></text>
<path
         id="path58"
         style="fill:none;stroke:#000000;stroke-width:1;stroke-linecap:butt;stroke-linejoin:round;stroke-miterlimit:10;stroke-dasharray:none;stroke-opacity:1"
         d="m 428,255.695 c 0,-7.711 0,-16.984 0,-25.582" /><path
         id="path60"
         style="fill:#000000;fill-opacity:1;fill-rule:nonzero;stroke:#000000;stroke-width:1;stroke-linecap:butt;stroke-linejoin:round;stroke-miterlimit:10;stroke-dasharray:none;stroke-opacity:1"
         d="m 431.5,230.105 -3.5,-10 -3.5,10 7,0 z" /><path
         id="path62"
         style="fill:none;stroke:#000000;stroke-width:1;stroke-linecap:butt;stroke-linejoin:round;stroke-miterlimit:10;stroke-dasharray:none;stroke-opacity:1"
         d="m 192.5,220 129,0 0,-36 -129,0 0,36 z" /><text
         id="text64"
         style="font-variant:normal;font-size:14.00024414px;font-family:'Nimbus Roman No9 L';-inkscape-font-specification:NimbusRomNo9L-Regu;writing-mode:lr-tb;fill:#000000;fill-opacity:1;fill-rule:nonzero;stroke:none"
         transform="matrix(1,0,0,-1,200.5,198.30078)"><tspan
           id="tspan66"
           y="0"
           x="0 7.5041308 14.252249 19.50234 23.254406 29.24651 40.502705 44.254772 51.002888 57.751007 61.503071 65.255135 76.51133 80.249397 85.499489 91.505592 95.25766 99.009727 105.75784">System optimisation</tspan></text>
<path
         id="path68"
         style="fill:none;stroke:#000000;stroke-width:1;stroke-linecap:butt;stroke-linejoin:round;stroke-miterlimit:10;stroke-dasharray:none;stroke-opacity:1"
         d="M 386.168,255.875 C 362.586,246.223 332.941,234.086 308,223.879" /><path
         id="path70"
         style="fill:#000000;fill-opacity:1;fill-rule:nonzero;stroke:#000000;stroke-width:1;stroke-linecap:butt;stroke-linejoin:round;stroke-miterlimit:10;stroke-dasharray:none;stroke-opacity:1"
         d="m 309.277,220.617 -10.582,-0.551 7.93,7.032 2.652,-6.481 z" /><path
         id="path72"
         style="fill:none;stroke:#c0c0c0;stroke-width:1;stroke-linecap:butt;stroke-linejoin:round;stroke-miterlimit:10;stroke-dasharray:none;stroke-opacity:1"
         d="m 457.5,148 159,0 0,-36 -159,0 0,36 z" /><text
         id="text74"
         style="font-variant:normal;font-size:14.00024414px;font-family:'Nimbus Roman No9 L';-inkscape-font-specification:NimbusRomNo9L-Regu;writing-mode:lr-tb;fill:#c0c0c0;fill-opacity:1;fill-rule:nonzero;stroke:none"
         transform="matrix(1,0,0,-1,465.5,126.30078)"><tspan
           id="tspan76"
           y="0"
           x="0 9.7441702 16.506289 22.498392 28.504498 32.998573 36.750641 42.756744 46.508812 53.256927 57.008995 63.757111 67.509178 74.257294 81.005409 87.011513 93.759636 97.511696 101.24976 105.75784 109.50991 115.50201 121.50812 125.26019 129.01225 135.76036">Uncertainty quantification</tspan></text>
<path
         id="path78"
         style="fill:none;stroke:#000000;stroke-width:1;stroke-linecap:butt;stroke-linejoin:round;stroke-miterlimit:10;stroke-dasharray:none;stroke-opacity:1"
         d="M 479.285,255.926 C 496.43,247.703 513.965,236.051 525,220 c 12.391,-18.02 14.805,-43.008 14.457,-61.922" /><path
         id="path80"
         style="fill:#000000;fill-opacity:1;fill-rule:nonzero;stroke:#000000;stroke-width:1;stroke-linecap:butt;stroke-linejoin:round;stroke-miterlimit:10;stroke-dasharray:none;stroke-opacity:1"
         d="m 542.949,157.844 -3.941,-9.832 -3.051,10.148 6.992,-0.316 z" /><path
         id="path82"
         style="fill:none;stroke:#c0c0c0;stroke-width:1;stroke-linecap:butt;stroke-linejoin:round;stroke-miterlimit:10;stroke-dasharray:none;stroke-opacity:1"
         d="m 40,220 134,0 0,-36 -134,0 0,36 z" /><text
         id="text84"
         style="font-variant:normal;font-size:14.00024414px;font-family:'Nimbus Roman No9 L';-inkscape-font-specification:NimbusRomNo9L-Regu;writing-mode:lr-tb;fill:#c0c0c0;fill-opacity:1;fill-rule:nonzero;stroke:none"
         transform="matrix(1,0,0,-1,48,198.30078)"><tspan
           id="tspan86"
           y="0"
           x="0 9.0021572 15.750275 22.498392 26.250458 30.002523 36.750641 43.498756 49.504864 53.256927 57.008995 63.757111 70.505226 74.257294 80.249397 87.011513 93.003624 96.755684 103.50381 108.7539 112.50596">Continuation analysis</tspan></text>
<path
         id="path88"
         style="fill:none;stroke:#000000;stroke-width:1;stroke-linecap:butt;stroke-linejoin:round;stroke-miterlimit:10;stroke-dasharray:none;stroke-opacity:1"
         d="M 355.875,257.535 C 309.441,247.551 247.52,234.168 183.934,220.199" /><path
         id="path90"
         style="fill:#000000;fill-opacity:1;fill-rule:nonzero;stroke:#000000;stroke-width:1;stroke-linecap:butt;stroke-linejoin:round;stroke-miterlimit:10;stroke-dasharray:none;stroke-opacity:1"
         d="m 184.648,216.773 -10.515,1.27 9.012,5.566 1.503,-6.836 z" /><path
         id="path92"
         style="fill:none;stroke:#000000;stroke-width:1;stroke-linecap:butt;stroke-linejoin:round;stroke-miterlimit:10;stroke-dasharray:none;stroke-opacity:1"
         d="m 316,148 112,0 0,-36 -112,0 0,36 z" /><text
         id="text94"
         style="font-variant:normal;font-size:14.00024414px;font-family:'Nimbus Roman No9 L';-inkscape-font-specification:NimbusRomNo9L-Regu;writing-mode:lr-tb;fill:#000000;fill-opacity:1;fill-rule:nonzero;stroke:none"
         transform="matrix(1,0,0,-1,324,126.30078)"><tspan
           id="tspan96"
           y="0"
           x="0 9.7441702 15.750275 19.50234 25.508444 29.24651 35.252613 40.502705 45.752796 49.504864 60.747059 64.499123 68.25119 74.257294 78.009361 81.761421 88.509544">Data assimilation</tspan></text>
<path
         id="path98"
         style="fill:none;stroke:#000000;stroke-width:1;stroke-linecap:butt;stroke-linejoin:round;stroke-miterlimit:10;stroke-dasharray:none;stroke-opacity:1"
         d="m 414.156,183.695 c -6.644,-8.304 -14.734,-18.418 -22.043,-27.554" /><path
         id="path100"
         style="fill:#000000;fill-opacity:1;fill-rule:nonzero;stroke:#000000;stroke-width:1;stroke-linecap:butt;stroke-linejoin:round;stroke-miterlimit:10;stroke-dasharray:none;stroke-opacity:1"
         d="m 394.664,153.727 -8.98,-5.622 3.515,9.993 5.465,-4.371 z" /><path
         id="path102"
         style="fill:none;stroke:#000000;stroke-width:1;stroke-linecap:butt;stroke-linejoin:round;stroke-miterlimit:10;stroke-dasharray:none;stroke-opacity:1"
         d="m 454.664,183.875 c 14.121,-9.066 31.648,-20.324 46.898,-30.117" /><path
         id="path104"
         style="fill:#000000;fill-opacity:1;fill-rule:nonzero;stroke:#000000;stroke-width:1;stroke-linecap:butt;stroke-linejoin:round;stroke-miterlimit:10;stroke-dasharray:none;stroke-opacity:1"
         d="m 503.711,156.539 6.523,-8.348 -10.308,2.457 3.785,5.891 z" /><path
         id="path106"
         style="fill:none;stroke:#000000;stroke-width:1;stroke-linecap:butt;stroke-linejoin:round;stroke-miterlimit:10;stroke-dasharray:none;stroke-opacity:1"
         d="m 285.133,183.875 c 15.035,-9.152 33.734,-20.535 49.926,-30.391" /><path
         id="path108"
         style="fill:#000000;fill-opacity:1;fill-rule:nonzero;stroke:#000000;stroke-width:1;stroke-linecap:butt;stroke-linejoin:round;stroke-miterlimit:10;stroke-dasharray:none;stroke-opacity:1"
         d="m 337.039,156.379 6.719,-8.188 -10.36,2.207 3.641,5.981 z" /><path
         id="path110"
         style="fill:none;stroke:#c0c0c0;stroke-width:1;stroke-linecap:butt;stroke-linejoin:round;stroke-miterlimit:10;stroke-dasharray:none;stroke-opacity:1"
         d="m 306.5,76 187,0 0,-36 -187,0 0,36 z" /><text
         id="text112"
         style="font-variant:normal;font-size:14.00024414px;font-family:'Nimbus Roman No9 L';-inkscape-font-specification:NimbusRomNo9L-Regu;writing-mode:lr-tb;fill:#c0c0c0;fill-opacity:1;fill-rule:nonzero;stroke:none"
         transform="matrix(1,0,0,-1,314.5,54.300781)"><tspan
           id="tspan114"
           y="0"
           x="0 9.7441702 16.506289 20.244352 23.996418 35.252613 39.004681 44.254772 50.246876 53.99894 57.751007 64.499123 71.261246 74.999306 81.761421 88.509544 95.25766 101.24976 105.75784 109.50991 116.25803 123.00614 129.01225 135.00435 139.51244 143.2645 149.25661 153.00867 159.75679 163.50885">Optimisation under uncertainty</tspan></text>
<path
         id="path116"
         style="fill:none;stroke:#000000;stroke-width:1;stroke-linecap:butt;stroke-linejoin:round;stroke-miterlimit:10;stroke-dasharray:none;stroke-opacity:1"
         d="M 263.363,183.82 C 271.215,164.469 286.137,132.992 307,112 319.258,99.664 334.98,89.266 350,81.035" /><path
         id="path118"
         style="fill:#000000;fill-opacity:1;fill-rule:nonzero;stroke:#000000;stroke-width:1;stroke-linecap:butt;stroke-linejoin:round;stroke-miterlimit:10;stroke-dasharray:none;stroke-opacity:1"
         d="m 351.996,83.941 7.227,-7.746 -10.485,1.551 3.258,6.195 z" /><path
         id="path120"
         style="fill:none;stroke:#000000;stroke-width:1;stroke-linecap:butt;stroke-linejoin:round;stroke-miterlimit:10;stroke-dasharray:none;stroke-opacity:1"
         d="M 503.484,111.875 C 485.16,102.512 462.266,90.812 442.672,80.805" /><path
         id="path122"
         style="fill:#000000;fill-opacity:1;fill-rule:nonzero;stroke:#000000;stroke-width:1;stroke-linecap:butt;stroke-linejoin:round;stroke-miterlimit:10;stroke-dasharray:none;stroke-opacity:1"
         d="m 444.141,77.621 -10.496,-1.43 7.312,7.664 3.184,-6.234 z" /><path
         id="path124"
         style="fill:none;stroke:#c0c0c0;stroke-width:1;stroke-linecap:butt;stroke-linejoin:round;stroke-miterlimit:10;stroke-dasharray:none;stroke-opacity:1"
         d="m 44.5,148 125,0 0,-36 -125,0 0,36 z" /><text
         id="text126"
         style="font-variant:normal;font-size:14.00024414px;font-family:'Nimbus Roman No9 L';-inkscape-font-specification:NimbusRomNo9L-Regu;writing-mode:lr-tb;fill:#c0c0c0;fill-opacity:1;fill-rule:nonzero;stroke:none"
         transform="matrix(1,0,0,-1,52.5,126.30078)"><tspan
           id="tspan128"
           y="0"
           x="0 9.0021572 12.754222 17.248301 23.996418 28.504498 34.496601 40.502705 44.254772 48.006836 54.754955 61.503071 65.255135 71.261246 78.009361 84.001465 87.753532 94.501648 99.75174 103.50381">Bifurcation analysis</tspan></text>
<path
         id="path130"
         style="fill:none;stroke:#000000;stroke-width:1;stroke-linecap:butt;stroke-linejoin:round;stroke-miterlimit:10;stroke-dasharray:none;stroke-opacity:1"
         d="m 107,183.695 c 0,-7.711 0,-16.984 0,-25.582" /><path
         id="path132"
         style="fill:#000000;fill-opacity:1;fill-rule:nonzero;stroke:#000000;stroke-width:1;stroke-linecap:butt;stroke-linejoin:round;stroke-miterlimit:10;stroke-dasharray:none;stroke-opacity:1"
         d="m 110.5,158.105 -3.5,-10 -3.5,10 7,0 z" /><path
         id="path134"
         style="fill:none;stroke:#000000;stroke-width:1;stroke-linecap:butt;stroke-linejoin:round;stroke-miterlimit:10;stroke-dasharray:none;stroke-opacity:1"
         d="M 577.969,255.766 C 573.605,237.711 566.164,208.605 558,184 c -2.91,-8.777 -6.496,-18.207 -9.875,-26.645" /><path
         id="path136"
         style="fill:#000000;fill-opacity:1;fill-rule:nonzero;stroke:#000000;stroke-width:1;stroke-linecap:butt;stroke-linejoin:round;stroke-miterlimit:10;stroke-dasharray:none;stroke-opacity:1"
         d="m 551.328,155.938 -7.019,-7.934 0.539,10.582 6.48,-2.648 z" /><path
         id="path138"
         style="fill:none;stroke:#c0c0c0;stroke-width:1;stroke-linecap:butt;stroke-linejoin:round;stroke-miterlimit:10;stroke-dasharray:none;stroke-opacity:1"
         d="m 610,220 136,0 0,-36 -136,0 0,36 z" /><text
         id="text140"
         style="font-variant:normal;font-size:14.00024414px;font-family:'Nimbus Roman No9 L';-inkscape-font-specification:NimbusRomNo9L-Regu;writing-mode:lr-tb;fill:#c0c0c0;fill-opacity:1;fill-rule:nonzero;stroke:none"
         transform="matrix(1,0,0,-1,618,198.30078)"><tspan
           id="tspan142"
           y="0"
           x="0 9.7441702 16.506289 22.498392 26.250458 30.758535 37.506653 43.498756 48.748848 54.754955 61.503071 65.255135 71.261246 78.009361 84.001465 90.74958 94.501648 98.253716 105.00183 108.7539 112.50596">Goal-based adaptivity</tspan></text>
<path
         id="path144"
         style="fill:none;stroke:#000000;stroke-width:1;stroke-linecap:butt;stroke-linejoin:round;stroke-miterlimit:10;stroke-dasharray:none;stroke-opacity:1"
         d="m 605.73,255.695 c 12.208,-8.898 27.254,-19.871 40.454,-29.496" /><path
         id="path146"
         style="fill:#000000;fill-opacity:1;fill-rule:nonzero;stroke:#000000;stroke-width:1;stroke-linecap:butt;stroke-linejoin:round;stroke-miterlimit:10;stroke-dasharray:none;stroke-opacity:1"
         d="m 648.523,228.824 6.02,-8.719 -10.141,3.063 4.121,5.656 z" /></g></g></svg>