<?xml version="1.0" encoding="UTF-8" standalone="no"?>
<svg
   xmlns:dc="http://purl.org/dc/elements/1.1/"
   xmlns:cc="http://creativecommons.org/ns#"
   xmlns:rdf="http://www.w3.org/1999/02/22-rdf-syntax-ns#"
   xmlns:svg="http://www.w3.org/2000/svg"
   xmlns="http://www.w3.org/2000/svg"
   viewBox="0 0 720 540"
   height="540"
   width="720"
   xml:space="preserve"
   version="1.1"
   id="svg2"><metadata
     id="metadata8"><rdf:RDF><cc:Work
         rdf:about=""><dc:format>image/svg+xml</dc:format><dc:type
           rdf:resource="http://purl.org/dc/dcmitype/StillImage" /><dc:title></dc:title></cc:Work></rdf:RDF></metadata><defs
     id="defs6"><clipPath
       id="clipPath20"
       clipPathUnits="userSpaceOnUse"><path
         id="path22"
         d="m 72,43.2 446.4,0 0,345.6 -446.4,0 0,-345.6 z" /></clipPath><clipPath
       id="clipPath30"
       clipPathUnits="userSpaceOnUse"><path
         id="path32"
         d="m 72,43.2 446.4,0 0,345.6 -446.4,0 0,-345.6 z" /></clipPath><clipPath
       id="clipPath40"
       clipPathUnits="userSpaceOnUse"><path
         id="path42"
         d="m 72,43.2 446.4,0 0,345.6 -446.4,0 0,-345.6 z" /></clipPath><clipPath
       id="clipPath50"
       clipPathUnits="userSpaceOnUse"><path
         id="path52"
         d="m 72,43.2 446.4,0 0,345.6 -446.4,0 0,-345.6 z" /></clipPath><clipPath
       id="clipPath60"
       clipPathUnits="userSpaceOnUse"><path
         id="path62"
         d="m 72,43.2 446.4,0 0,345.6 -446.4,0 0,-345.6 z" /></clipPath><clipPath
       id="clipPath70"
       clipPathUnits="userSpaceOnUse"><path
         id="path72"
         d="m 72,43.2 446.4,0 0,345.6 -446.4,0 0,-345.6 z" /></clipPath><clipPath
       id="clipPath80"
       clipPathUnits="userSpaceOnUse"><path
         id="path82"
         d="m 72,43.2 446.4,0 0,345.6 -446.4,0 0,-345.6 z" /></clipPath><clipPath
       id="clipPath90"
       clipPathUnits="userSpaceOnUse"><path
         id="path92"
         d="m 72,43.2 446.4,0 0,345.6 -446.4,0 0,-345.6 z" /></clipPath><clipPath
       id="clipPath100"
       clipPathUnits="userSpaceOnUse"><path
         id="path102"
         d="m 72,43.2 446.4,0 0,345.6 -446.4,0 0,-345.6 z" /></clipPath><clipPath
       id="clipPath110"
       clipPathUnits="userSpaceOnUse"><path
         id="path112"
         d="m 72,43.2 446.4,0 0,345.6 -446.4,0 0,-345.6 z" /></clipPath><clipPath
       id="clipPath120"
       clipPathUnits="userSpaceOnUse"><path
         id="path122"
         d="m 72,43.2 446.4,0 0,345.6 -446.4,0 0,-345.6 z" /></clipPath><clipPath
       id="clipPath130"
       clipPathUnits="userSpaceOnUse"><path
         id="path132"
         d="m 72,43.2 446.4,0 0,345.6 -446.4,0 0,-345.6 z" /></clipPath><clipPath
       id="clipPath140"
       clipPathUnits="userSpaceOnUse"><path
         id="path142"
         d="m 72,43.2 446.4,0 0,345.6 -446.4,0 0,-345.6 z" /></clipPath><clipPath
       id="clipPath150"
       clipPathUnits="userSpaceOnUse"><path
         id="path152"
         d="m 72,43.2 446.4,0 0,345.6 -446.4,0 0,-345.6 z" /></clipPath><clipPath
       id="clipPath160"
       clipPathUnits="userSpaceOnUse"><path
         id="path162"
         d="m 72,43.2 446.4,0 0,345.6 -446.4,0 0,-345.6 z" /></clipPath><clipPath
       id="clipPath170"
       clipPathUnits="userSpaceOnUse"><path
         id="path172"
         d="m 72,43.2 446.4,0 0,345.6 -446.4,0 0,-345.6 z" /></clipPath><clipPath
       id="clipPath180"
       clipPathUnits="userSpaceOnUse"><path
         id="path182"
         d="m 72,43.2 446.4,0 0,345.6 -446.4,0 0,-345.6 z" /></clipPath><clipPath
       id="clipPath190"
       clipPathUnits="userSpaceOnUse"><path
         id="path192"
         d="m 72,43.2 446.4,0 0,345.6 -446.4,0 0,-345.6 z" /></clipPath><clipPath
       id="clipPath200"
       clipPathUnits="userSpaceOnUse"><path
         id="path202"
         d="m 72,43.2 446.4,0 0,345.6 -446.4,0 0,-345.6 z" /></clipPath><clipPath
       id="clipPath210"
       clipPathUnits="userSpaceOnUse"><path
         id="path212"
         d="m 72,43.2 446.4,0 0,345.6 -446.4,0 0,-345.6 z" /></clipPath><clipPath
       id="clipPath220"
       clipPathUnits="userSpaceOnUse"><path
         id="path222"
         d="m 72,43.2 446.4,0 0,345.6 -446.4,0 0,-345.6 z" /></clipPath><clipPath
       id="clipPath230"
       clipPathUnits="userSpaceOnUse"><path
         id="path232"
         d="m 72,43.2 446.4,0 0,345.6 -446.4,0 0,-345.6 z" /></clipPath><clipPath
       id="clipPath240"
       clipPathUnits="userSpaceOnUse"><path
         id="path242"
         d="m 72,43.2 446.4,0 0,345.6 -446.4,0 0,-345.6 z" /></clipPath><clipPath
       id="clipPath250"
       clipPathUnits="userSpaceOnUse"><path
         id="path252"
         d="m 72,43.2 446.4,0 0,345.6 -446.4,0 0,-345.6 z" /></clipPath><clipPath
       id="clipPath260"
       clipPathUnits="userSpaceOnUse"><path
         id="path262"
         d="m 72,43.2 446.4,0 0,345.6 -446.4,0 0,-345.6 z" /></clipPath><clipPath
       id="clipPath270"
       clipPathUnits="userSpaceOnUse"><path
         id="path272"
         d="m 72,43.2 446.4,0 0,345.6 -446.4,0 0,-345.6 z" /></clipPath><clipPath
       id="clipPath280"
       clipPathUnits="userSpaceOnUse"><path
         id="path282"
         d="m 72,43.2 446.4,0 0,345.6 -446.4,0 0,-345.6 z" /></clipPath><clipPath
       id="clipPath290"
       clipPathUnits="userSpaceOnUse"><path
         id="path292"
         d="m 72,43.2 446.4,0 0,345.6 -446.4,0 0,-345.6 z" /></clipPath><clipPath
       id="clipPath300"
       clipPathUnits="userSpaceOnUse"><path
         id="path302"
         d="m 72,43.2 446.4,0 0,345.6 -446.4,0 0,-345.6 z" /></clipPath><clipPath
       id="clipPath310"
       clipPathUnits="userSpaceOnUse"><path
         id="path312"
         d="m 72,43.2 446.4,0 0,345.6 -446.4,0 0,-345.6 z" /></clipPath><clipPath
       id="clipPath320"
       clipPathUnits="userSpaceOnUse"><path
         id="path322"
         d="m 72,43.2 446.4,0 0,345.6 -446.4,0 0,-345.6 z" /></clipPath><clipPath
       id="clipPath330"
       clipPathUnits="userSpaceOnUse"><path
         id="path332"
         d="m 72,43.2 446.4,0 0,345.6 -446.4,0 0,-345.6 z" /></clipPath><clipPath
       id="clipPath340"
       clipPathUnits="userSpaceOnUse"><path
         id="path342"
         d="m 72,43.2 446.4,0 0,345.6 -446.4,0 0,-345.6 z" /></clipPath><clipPath
       id="clipPath350"
       clipPathUnits="userSpaceOnUse"><path
         id="path352"
         d="m 72,43.2 446.4,0 0,345.6 -446.4,0 0,-345.6 z" /></clipPath><clipPath
       id="clipPath360"
       clipPathUnits="userSpaceOnUse"><path
         id="path362"
         d="m 72,43.2 446.4,0 0,345.6 -446.4,0 0,-345.6 z" /></clipPath></defs><g
     transform="matrix(1.25,0,0,-1.25,0,540)"
     id="g10"><path
       id="path12"
       style="fill:#ffffff;fill-opacity:1;fill-rule:nonzero;stroke:none"
       d="M 0,0 576,0 576,432 0,432 0,0 Z" /><path
       id="path14"
       style="fill:#ffffff;fill-opacity:1;fill-rule:nonzero;stroke:none"
       d="m 72,43.2 446.4,0 0,345.6 -446.4,0 0,-345.6 z" /><g
       id="g16"><g
         clip-path="url(#clipPath20)"
         id="g18"><path
           id="path24"
           style="fill:#ff0000;fill-opacity:1;fill-rule:nonzero;stroke:#000000;stroke-width:1;stroke-linecap:butt;stroke-linejoin:round;stroke-miterlimit:10;stroke-dasharray:none;stroke-opacity:1"
           d="m 82.841143,43.2 21.044567,0 0,157.248 -21.044567,0 0,-157.248 z" /></g></g><g
       id="g26"><g
         clip-path="url(#clipPath30)"
         id="g28"><path
           id="path34"
           style="fill:#008000;fill-opacity:1;fill-rule:nonzero;stroke:#000000;stroke-width:1;stroke-linecap:butt;stroke-linejoin:round;stroke-miterlimit:10;stroke-dasharray:none;stroke-opacity:1"
           d="m 103.88571,43.2 21.04458,0 0,9.125914 -21.04458,0 0,-9.125914 z" /></g></g><g
       id="g36"><g
         clip-path="url(#clipPath40)"
         id="g38"><path
           id="path44"
           style="fill:#0000ff;fill-opacity:1;fill-rule:nonzero;stroke:#000000;stroke-width:1;stroke-linecap:butt;stroke-linejoin:round;stroke-miterlimit:10;stroke-dasharray:none;stroke-opacity:1"
           d="m 103.88571,52.325914 21.04458,0 0,22.25664 -21.04458,0 0,-22.25664 z" /></g></g><g
       id="g46"><g
         clip-path="url(#clipPath50)"
         id="g48"><path
           id="path54"
           style="fill:#ffff00;fill-opacity:1;fill-rule:nonzero;stroke:#000000;stroke-width:1;stroke-linecap:butt;stroke-linejoin:round;stroke-miterlimit:10;stroke-dasharray:none;stroke-opacity:1"
           d="m 103.88571,74.582554 21.04458,0 0,61.651586 -21.04458,0 0,-61.651586 z" /></g></g><g
       id="g56"><g
         clip-path="url(#clipPath60)"
         id="g58"><path
           id="path64"
           style="fill:#00ffff;fill-opacity:1;fill-rule:nonzero;stroke:#000000;stroke-width:1;stroke-linecap:butt;stroke-linejoin:round;stroke-miterlimit:10;stroke-dasharray:none;stroke-opacity:1"
           d="m 103.88571,136.23414 21.04458,0 0,37.67213 -21.04458,0 0,-37.67213 z" /></g></g><g
       id="g66"><g
         clip-path="url(#clipPath70)"
         id="g68"><path
           id="path74"
           style="fill:#ff0000;fill-opacity:1;fill-rule:nonzero;stroke:#000000;stroke-width:1;stroke-linecap:butt;stroke-linejoin:round;stroke-miterlimit:10;stroke-dasharray:none;stroke-opacity:1"
           d="m 146.61257,43.2 21.04457,0 0,120.96 -21.04457,0 0,-120.96 z" /></g></g><g
       id="g76"><g
         clip-path="url(#clipPath80)"
         id="g78"><path
           id="path84"
           style="fill:#008000;fill-opacity:1;fill-rule:nonzero;stroke:#000000;stroke-width:1;stroke-linecap:butt;stroke-linejoin:round;stroke-miterlimit:10;stroke-dasharray:none;stroke-opacity:1"
           d="m 167.65714,43.2 21.04457,0 0,5.7888 -21.04457,0 0,-5.7888 z" /></g></g><g
       id="g86"><g
         clip-path="url(#clipPath90)"
         id="g88"><path
           id="path94"
           style="fill:#0000ff;fill-opacity:1;fill-rule:nonzero;stroke:#000000;stroke-width:1;stroke-linecap:butt;stroke-linejoin:round;stroke-miterlimit:10;stroke-dasharray:none;stroke-opacity:1"
           d="m 167.65714,48.9888 21.04457,0 0,10.145434 -21.04457,0 0,-10.145434 z" /></g></g><g
       id="g96"><g
         clip-path="url(#clipPath100)"
         id="g98"><path
           id="path104"
           style="fill:#ffff00;fill-opacity:1;fill-rule:nonzero;stroke:#000000;stroke-width:1;stroke-linecap:butt;stroke-linejoin:round;stroke-miterlimit:10;stroke-dasharray:none;stroke-opacity:1"
           d="m 167.65714,59.134234 21.04457,0 0,54.051836 -21.04457,0 0,-54.051836 z" /></g></g><g
       id="g106"><g
         clip-path="url(#clipPath110)"
         id="g108"><path
           id="path114"
           style="fill:#00ffff;fill-opacity:1;fill-rule:nonzero;stroke:#000000;stroke-width:1;stroke-linecap:butt;stroke-linejoin:round;stroke-miterlimit:10;stroke-dasharray:none;stroke-opacity:1"
           d="m 167.65714,113.18607 21.04457,0 0,39.91162 -21.04457,0 0,-39.91162 z" /></g></g><g
       id="g116"><g
         clip-path="url(#clipPath120)"
         id="g118"><path
           id="path124"
           style="fill:#ff0000;fill-opacity:1;fill-rule:nonzero;stroke:#000000;stroke-width:1;stroke-linecap:butt;stroke-linejoin:round;stroke-miterlimit:10;stroke-dasharray:none;stroke-opacity:1"
           d="m 210.384,43.2 21.04457,0 0,122.688 -21.04457,0 0,-122.688 z" /></g></g><g
       id="g126"><g
         clip-path="url(#clipPath130)"
         id="g128"><path
           id="path134"
           style="fill:#008000;fill-opacity:1;fill-rule:nonzero;stroke:#000000;stroke-width:1;stroke-linecap:butt;stroke-linejoin:round;stroke-miterlimit:10;stroke-dasharray:none;stroke-opacity:1"
           d="m 231.42857,43.2 21.04457,0 0,6.356102 -21.04457,0 0,-6.356102 z" /></g></g><g
       id="g136"><g
         clip-path="url(#clipPath140)"
         id="g138"><path
           id="path144"
           style="fill:#0000ff;fill-opacity:1;fill-rule:nonzero;stroke:#000000;stroke-width:1;stroke-linecap:butt;stroke-linejoin:round;stroke-miterlimit:10;stroke-dasharray:none;stroke-opacity:1"
           d="m 231.42857,49.556102 21.04457,0 0,10.268122 -21.04457,0 0,-10.268122 z" /></g></g><g
       id="g146"><g
         clip-path="url(#clipPath150)"
         id="g148"><path
           id="path154"
           style="fill:#ffff00;fill-opacity:1;fill-rule:nonzero;stroke:#000000;stroke-width:1;stroke-linecap:butt;stroke-linejoin:round;stroke-miterlimit:10;stroke-dasharray:none;stroke-opacity:1"
           d="m 231.42857,59.824224 21.04457,0 0,56.168636 -21.04457,0 0,-56.168636 z" /></g></g><g
       id="g156"><g
         clip-path="url(#clipPath160)"
         id="g158"><path
           id="path164"
           style="fill:#00ffff;fill-opacity:1;fill-rule:nonzero;stroke:#000000;stroke-width:1;stroke-linecap:butt;stroke-linejoin:round;stroke-miterlimit:10;stroke-dasharray:none;stroke-opacity:1"
           d="m 231.42857,115.99286 21.04457,0 0,38.66919 -21.04457,0 0,-38.66919 z" /></g></g><g
       id="g166"><g
         clip-path="url(#clipPath170)"
         id="g168"><path
           id="path174"
           style="fill:#ff0000;fill-opacity:1;fill-rule:nonzero;stroke:#000000;stroke-width:1;stroke-linecap:butt;stroke-linejoin:round;stroke-miterlimit:10;stroke-dasharray:none;stroke-opacity:1"
           d="m 274.15543,43.2 21.04457,0 0,143.424 -21.04457,0 0,-143.424 z" /></g></g><g
       id="g176"><g
         clip-path="url(#clipPath180)"
         id="g178"><path
           id="path184"
           style="fill:#008000;fill-opacity:1;fill-rule:nonzero;stroke:#000000;stroke-width:1;stroke-linecap:butt;stroke-linejoin:round;stroke-miterlimit:10;stroke-dasharray:none;stroke-opacity:1"
           d="m 295.2,43.2 21.04457,0 0,8.126266 -21.04457,0 0,-8.126266 z" /></g></g><g
       id="g186"><g
         clip-path="url(#clipPath190)"
         id="g188"><path
           id="path194"
           style="fill:#0000ff;fill-opacity:1;fill-rule:nonzero;stroke:#000000;stroke-width:1;stroke-linecap:butt;stroke-linejoin:round;stroke-miterlimit:10;stroke-dasharray:none;stroke-opacity:1"
           d="m 295.2,51.326266 21.04457,0 0,11.964326 -21.04457,0 0,-11.964326 z" /></g></g><g
       id="g196"><g
         clip-path="url(#clipPath200)"
         id="g198"><path
           id="path204"
           style="fill:#ffff00;fill-opacity:1;fill-rule:nonzero;stroke:#000000;stroke-width:1;stroke-linecap:butt;stroke-linejoin:round;stroke-miterlimit:10;stroke-dasharray:none;stroke-opacity:1"
           d="m 295.2,63.290592 21.04457,0 0,61.527168 -21.04457,0 0,-61.527168 z" /></g></g><g
       id="g206"><g
         clip-path="url(#clipPath210)"
         id="g208"><path
           id="path214"
           style="fill:#00ffff;fill-opacity:1;fill-rule:nonzero;stroke:#000000;stroke-width:1;stroke-linecap:butt;stroke-linejoin:round;stroke-miterlimit:10;stroke-dasharray:none;stroke-opacity:1"
           d="m 295.2,124.81776 21.04457,0 0,40.08787 -21.04457,0 0,-40.08787 z" /></g></g><g
       id="g216"><g
         clip-path="url(#clipPath220)"
         id="g218"><path
           id="path224"
           style="fill:#ff0000;fill-opacity:1;fill-rule:nonzero;stroke:#000000;stroke-width:1;stroke-linecap:butt;stroke-linejoin:round;stroke-miterlimit:10;stroke-dasharray:none;stroke-opacity:1"
           d="m 337.92686,43.2 21.04457,0 0,177.984 -21.04457,0 0,-177.984 z" /></g></g><g
       id="g226"><g
         clip-path="url(#clipPath230)"
         id="g228"><path
           id="path234"
           style="fill:#008000;fill-opacity:1;fill-rule:nonzero;stroke:#000000;stroke-width:1;stroke-linecap:butt;stroke-linejoin:round;stroke-miterlimit:10;stroke-dasharray:none;stroke-opacity:1"
           d="m 358.97143,43.2 21.04457,0 0,8.297338 -21.04457,0 0,-8.297338 z" /></g></g><g
       id="g236"><g
         clip-path="url(#clipPath240)"
         id="g238"><path
           id="path244"
           style="fill:#0000ff;fill-opacity:1;fill-rule:nonzero;stroke:#000000;stroke-width:1;stroke-linecap:butt;stroke-linejoin:round;stroke-miterlimit:10;stroke-dasharray:none;stroke-opacity:1"
           d="m 358.97143,51.497338 21.04457,0 0,13.794105 -21.04457,0 0,-13.794105 z" /></g></g><g
       id="g246"><g
         clip-path="url(#clipPath250)"
         id="g248"><path
           id="path254"
           style="fill:#ffff00;fill-opacity:1;fill-rule:nonzero;stroke:#000000;stroke-width:1;stroke-linecap:butt;stroke-linejoin:round;stroke-miterlimit:10;stroke-dasharray:none;stroke-opacity:1"
           d="m 358.97143,65.291443 21.04457,0 0,82.114557 -21.04457,0 0,-82.114557 z" /></g></g><g
       id="g256"><g
         clip-path="url(#clipPath260)"
         id="g258"><path
           id="path264"
           style="fill:#00ffff;fill-opacity:1;fill-rule:nonzero;stroke:#000000;stroke-width:1;stroke-linecap:butt;stroke-linejoin:round;stroke-miterlimit:10;stroke-dasharray:none;stroke-opacity:1"
           d="m 358.97143,147.406 21.04457,0 0,44.87444 -21.04457,0 0,-44.87444 z" /></g></g><g
       id="g266"><g
         clip-path="url(#clipPath270)"
         id="g268"><path
           id="path274"
           style="fill:#ff0000;fill-opacity:1;fill-rule:nonzero;stroke:#000000;stroke-width:1;stroke-linecap:butt;stroke-linejoin:round;stroke-miterlimit:10;stroke-dasharray:none;stroke-opacity:1"
           d="m 401.69829,43.2 21.04457,0 0,248.832 -21.04457,0 0,-248.832 z" /></g></g><g
       id="g276"><g
         clip-path="url(#clipPath280)"
         id="g278"><path
           id="path284"
           style="fill:#008000;fill-opacity:1;fill-rule:nonzero;stroke:#000000;stroke-width:1;stroke-linecap:butt;stroke-linejoin:round;stroke-miterlimit:10;stroke-dasharray:none;stroke-opacity:1"
           d="m 422.74286,43.2 21.04457,0 0,9.786874 -21.04457,0 0,-9.786874 z" /></g></g><g
       id="g286"><g
         clip-path="url(#clipPath290)"
         id="g288"><path
           id="path294"
           style="fill:#0000ff;fill-opacity:1;fill-rule:nonzero;stroke:#000000;stroke-width:1;stroke-linecap:butt;stroke-linejoin:round;stroke-miterlimit:10;stroke-dasharray:none;stroke-opacity:1"
           d="m 422.74286,52.986874 21.04457,0 0,21.61728 -21.04457,0 0,-21.61728 z" /></g></g><g
       id="g296"><g
         clip-path="url(#clipPath300)"
         id="g298"><path
           id="path304"
           style="fill:#ffff00;fill-opacity:1;fill-rule:nonzero;stroke:#000000;stroke-width:1;stroke-linecap:butt;stroke-linejoin:round;stroke-miterlimit:10;stroke-dasharray:none;stroke-opacity:1"
           d="m 422.74286,74.604154 21.04457,0 0,90.436606 -21.04457,0 0,-90.436606 z" /></g></g><g
       id="g306"><g
         clip-path="url(#clipPath310)"
         id="g308"><path
           id="path314"
           style="fill:#00ffff;fill-opacity:1;fill-rule:nonzero;stroke:#000000;stroke-width:1;stroke-linecap:butt;stroke-linejoin:round;stroke-miterlimit:10;stroke-dasharray:none;stroke-opacity:1"
           d="m 422.74286,165.04076 21.04457,0 0,56.03904 -21.04457,0 0,-56.03904 z" /></g></g><g
       id="g316"><g
         clip-path="url(#clipPath320)"
         id="g318"><path
           id="path324"
           style="fill:#ff0000;fill-opacity:1;fill-rule:nonzero;stroke:#000000;stroke-width:1;stroke-linecap:butt;stroke-linejoin:round;stroke-miterlimit:10;stroke-dasharray:none;stroke-opacity:1"
           d="m 465.46971,43.2 21.04458,0 0,312.768 -21.04458,0 0,-312.768 z" /></g></g><g
       id="g326"><g
         clip-path="url(#clipPath330)"
         id="g328"><path
           id="path334"
           style="fill:#008000;fill-opacity:1;fill-rule:nonzero;stroke:#000000;stroke-width:1;stroke-linecap:butt;stroke-linejoin:round;stroke-miterlimit:10;stroke-dasharray:none;stroke-opacity:1"
           d="m 486.51429,43.2 21.04457,0 0,11.978842 -21.04457,0 0,-11.978842 z" /></g></g><g
       id="g336"><g
         clip-path="url(#clipPath340)"
         id="g338"><path
           id="path344"
           style="fill:#0000ff;fill-opacity:1;fill-rule:nonzero;stroke:#000000;stroke-width:1;stroke-linecap:butt;stroke-linejoin:round;stroke-miterlimit:10;stroke-dasharray:none;stroke-opacity:1"
           d="m 486.51429,55.178842 21.04457,0 0,28.752192 -21.04457,0 0,-28.752192 z" /></g></g><g
       id="g346"><g
         clip-path="url(#clipPath350)"
         id="g348"><path
           id="path354"
           style="fill:#ffff00;fill-opacity:1;fill-rule:nonzero;stroke:#000000;stroke-width:1;stroke-linecap:butt;stroke-linejoin:round;stroke-miterlimit:10;stroke-dasharray:none;stroke-opacity:1"
           d="m 486.51429,83.931034 21.04457,0 0,95.874626 -21.04457,0 0,-95.874626 z" /></g></g><g
       id="g356"><g
         clip-path="url(#clipPath360)"
         id="g358"><path
           id="path364"
           style="fill:#00ffff;fill-opacity:1;fill-rule:nonzero;stroke:#000000;stroke-width:1;stroke-linecap:butt;stroke-linejoin:round;stroke-miterlimit:10;stroke-dasharray:none;stroke-opacity:1"
           d="m 486.51429,179.80566 21.04457,0 0,64.32307 -21.04457,0 0,-64.32307 z" /></g></g><g
       id="g366"><path
         id="path368"
         style="fill:#000000;fill-opacity:1;fill-rule:nonzero;stroke:#000000;stroke-width:0.5;stroke-linecap:butt;stroke-linejoin:round;stroke-miterlimit:10;stroke-dasharray:none;stroke-opacity:1"
         d="m 103.88571,43.2 0,4" /><path
         id="path370"
         style="fill:#000000;fill-opacity:1;fill-rule:nonzero;stroke:#000000;stroke-width:0.5;stroke-linecap:butt;stroke-linejoin:round;stroke-miterlimit:10;stroke-dasharray:none;stroke-opacity:1"
         d="m 103.88571,388.8 0,-4" /><text
         id="text372"
         style="font-variant:normal;font-weight:normal;font-size:12px;font-family:Arial;-inkscape-font-specification:ArialMT;writing-mode:lr-tb;fill:#000000;fill-opacity:1;fill-rule:nonzero;stroke:none"
         transform="matrix(1,0,0,-1,97.682589,30.60625)"><tspan
           id="tspan374"
           y="0"
           x="0 6.6719999">24</tspan></text>
<path
         id="path376"
         style="fill:#000000;fill-opacity:1;fill-rule:nonzero;stroke:#000000;stroke-width:0.5;stroke-linecap:butt;stroke-linejoin:round;stroke-miterlimit:10;stroke-dasharray:none;stroke-opacity:1"
         d="m 167.65714,43.2 0,4" /><path
         id="path378"
         style="fill:#000000;fill-opacity:1;fill-rule:nonzero;stroke:#000000;stroke-width:0.5;stroke-linecap:butt;stroke-linejoin:round;stroke-miterlimit:10;stroke-dasharray:none;stroke-opacity:1"
         d="m 167.65714,388.8 0,-4" /><text
         id="text380"
         style="font-variant:normal;font-weight:normal;font-size:12px;font-family:Arial;-inkscape-font-specification:ArialMT;writing-mode:lr-tb;fill:#000000;fill-opacity:1;fill-rule:nonzero;stroke:none"
         transform="matrix(1,0,0,-1,161.50871,30.60625)"><tspan
           id="tspan382"
           y="0"
           x="0 6.6719999">96</tspan></text>
<path
         id="path384"
         style="fill:#000000;fill-opacity:1;fill-rule:nonzero;stroke:#000000;stroke-width:0.5;stroke-linecap:butt;stroke-linejoin:round;stroke-miterlimit:10;stroke-dasharray:none;stroke-opacity:1"
         d="m 231.42857,43.2 0,4" /><path
         id="path386"
         style="fill:#000000;fill-opacity:1;fill-rule:nonzero;stroke:#000000;stroke-width:0.5;stroke-linecap:butt;stroke-linejoin:round;stroke-miterlimit:10;stroke-dasharray:none;stroke-opacity:1"
         d="m 231.42857,388.8 0,-4" /><text
         id="text388"
         style="font-variant:normal;font-weight:normal;font-size:12px;font-family:Arial;-inkscape-font-specification:ArialMT;writing-mode:lr-tb;fill:#000000;fill-opacity:1;fill-rule:nonzero;stroke:none"
         transform="matrix(1,0,0,-1,221.95982,30.60625)"><tspan
           id="tspan390"
           y="0"
           x="0 6.6719999 13.344">384</tspan></text>
<path
         id="path392"
         style="fill:#000000;fill-opacity:1;fill-rule:nonzero;stroke:#000000;stroke-width:0.5;stroke-linecap:butt;stroke-linejoin:round;stroke-miterlimit:10;stroke-dasharray:none;stroke-opacity:1"
         d="m 295.2,43.2 0,4" /><path
         id="path394"
         style="fill:#000000;fill-opacity:1;fill-rule:nonzero;stroke:#000000;stroke-width:0.5;stroke-linecap:butt;stroke-linejoin:round;stroke-miterlimit:10;stroke-dasharray:none;stroke-opacity:1"
         d="m 295.2,388.8 0,-4" /><text
         id="text396"
         style="font-variant:normal;font-weight:normal;font-size:12px;font-family:Arial;-inkscape-font-specification:ArialMT;writing-mode:lr-tb;fill:#000000;fill-opacity:1;fill-rule:nonzero;stroke:none"
         transform="matrix(1,0,0,-1,282.78594,30.60625)"><tspan
           id="tspan398"
           y="0"
           x="0 6.6719999 13.344 20.016001">1536</tspan></text>
<path
         id="path400"
         style="fill:#000000;fill-opacity:1;fill-rule:nonzero;stroke:#000000;stroke-width:0.5;stroke-linecap:butt;stroke-linejoin:round;stroke-miterlimit:10;stroke-dasharray:none;stroke-opacity:1"
         d="m 358.97143,43.2 0,4" /><path
         id="path402"
         style="fill:#000000;fill-opacity:1;fill-rule:nonzero;stroke:#000000;stroke-width:0.5;stroke-linecap:butt;stroke-linejoin:round;stroke-miterlimit:10;stroke-dasharray:none;stroke-opacity:1"
         d="m 358.97143,388.8 0,-4" /><text
         id="text404"
         style="font-variant:normal;font-weight:normal;font-size:12px;font-family:Arial;-inkscape-font-specification:ArialMT;writing-mode:lr-tb;fill:#000000;fill-opacity:1;fill-rule:nonzero;stroke:none"
         transform="matrix(1,0,0,-1,346.1433,30.60625)"><tspan
           id="tspan406"
           y="0"
           x="0 6.6719999 13.344 20.016001">6144</tspan></text>
<path
         id="path408"
         style="fill:#000000;fill-opacity:1;fill-rule:nonzero;stroke:#000000;stroke-width:0.5;stroke-linecap:butt;stroke-linejoin:round;stroke-miterlimit:10;stroke-dasharray:none;stroke-opacity:1"
         d="m 422.74286,43.2 0,4" /><path
         id="path410"
         style="fill:#000000;fill-opacity:1;fill-rule:nonzero;stroke:#000000;stroke-width:0.5;stroke-linecap:butt;stroke-linejoin:round;stroke-miterlimit:10;stroke-dasharray:none;stroke-opacity:1"
         d="m 422.74286,388.8 0,-4" /><text
         id="text412"
         style="font-variant:normal;font-weight:normal;font-size:12px;font-family:Arial;-inkscape-font-specification:ArialMT;writing-mode:lr-tb;fill:#000000;fill-opacity:1;fill-rule:nonzero;stroke:none"
         transform="matrix(1,0,0,-1,407.03192,30.60625)"><tspan
           id="tspan414"
           y="0"
           x="0 6.6719999 13.344 20.016001 26.688">18432</tspan></text>
<path
         id="path416"
         style="fill:#000000;fill-opacity:1;fill-rule:nonzero;stroke:#000000;stroke-width:0.5;stroke-linecap:butt;stroke-linejoin:round;stroke-miterlimit:10;stroke-dasharray:none;stroke-opacity:1"
         d="m 486.51429,43.2 0,4" /><path
         id="path418"
         style="fill:#000000;fill-opacity:1;fill-rule:nonzero;stroke:#000000;stroke-width:0.5;stroke-linecap:butt;stroke-linejoin:round;stroke-miterlimit:10;stroke-dasharray:none;stroke-opacity:1"
         d="m 486.51429,388.8 0,-4" /><text
         id="text420"
         style="font-variant:normal;font-weight:normal;font-size:12px;font-family:Arial;-inkscape-font-specification:ArialMT;writing-mode:lr-tb;fill:#000000;fill-opacity:1;fill-rule:nonzero;stroke:none"
         transform="matrix(1,0,0,-1,470.28772,30.60625)"><tspan
           id="tspan422"
           y="0"
           x="0 6.6719999 13.344 20.016001 26.688">24576</tspan></text>
<text
         id="text424"
         style="font-variant:normal;font-weight:normal;font-size:12px;font-family:Arial;-inkscape-font-specification:ArialMT;writing-mode:lr-tb;fill:#000000;fill-opacity:1;fill-rule:nonzero;stroke:none"
         transform="matrix(1,0,0,-1,239.41875,14.48125)"><tspan
           id="tspan426"
           y="0"
           x="0 6.6719999 13.344 23.34 30.011999 36.683998 40.68 44.015999 50.688 54.023998 57.360001 64.031998 68.028 74.699997 80.699997 87.372002 93.372002 99.372002 106.044">number of processes</tspan></text>
<path
         id="path428"
         style="fill:#000000;fill-opacity:1;fill-rule:nonzero;stroke:#000000;stroke-width:0.5;stroke-linecap:butt;stroke-linejoin:round;stroke-miterlimit:10;stroke-dasharray:none;stroke-opacity:1"
         d="m 72,43.2 4,0" /><path
         id="path430"
         style="fill:#000000;fill-opacity:1;fill-rule:nonzero;stroke:#000000;stroke-width:0.5;stroke-linecap:butt;stroke-linejoin:round;stroke-miterlimit:10;stroke-dasharray:none;stroke-opacity:1"
         d="m 518.4,43.2 -4,0" /><text
         id="text432"
         style="font-variant:normal;font-weight:normal;font-size:12px;font-family:Arial;-inkscape-font-specification:ArialMT;writing-mode:lr-tb;fill:#000000;fill-opacity:1;fill-rule:nonzero;stroke:none"
         transform="matrix(1,0,0,-1,62.40625,40.098438)"><tspan
           id="tspan434"
           y="0"
           x="0">0</tspan></text>
<path
         id="path436"
         style="fill:#000000;fill-opacity:1;fill-rule:nonzero;stroke:#000000;stroke-width:0.5;stroke-linecap:butt;stroke-linejoin:round;stroke-miterlimit:10;stroke-dasharray:none;stroke-opacity:1"
         d="m 72,129.6 4,0" /><path
         id="path438"
         style="fill:#000000;fill-opacity:1;fill-rule:nonzero;stroke:#000000;stroke-width:0.5;stroke-linecap:butt;stroke-linejoin:round;stroke-miterlimit:10;stroke-dasharray:none;stroke-opacity:1"
         d="m 518.4,129.6 -4,0" /><text
         id="text440"
         style="font-variant:normal;font-weight:normal;font-size:12px;font-family:Arial;-inkscape-font-specification:ArialMT;writing-mode:lr-tb;fill:#000000;fill-opacity:1;fill-rule:nonzero;stroke:none"
         transform="matrix(1,0,0,-1,55.734375,126.49844)"><tspan
           id="tspan442"
           y="0"
           x="0 6.6719999">50</tspan></text>
<path
         id="path444"
         style="fill:#000000;fill-opacity:1;fill-rule:nonzero;stroke:#000000;stroke-width:0.5;stroke-linecap:butt;stroke-linejoin:round;stroke-miterlimit:10;stroke-dasharray:none;stroke-opacity:1"
         d="m 72,216 4,0" /><path
         id="path446"
         style="fill:#000000;fill-opacity:1;fill-rule:nonzero;stroke:#000000;stroke-width:0.5;stroke-linecap:butt;stroke-linejoin:round;stroke-miterlimit:10;stroke-dasharray:none;stroke-opacity:1"
         d="m 518.4,216 -4,0" /><text
         id="text448"
         style="font-variant:normal;font-weight:normal;font-size:12px;font-family:Arial;-inkscape-font-specification:ArialMT;writing-mode:lr-tb;fill:#000000;fill-opacity:1;fill-rule:nonzero;stroke:none"
         transform="matrix(1,0,0,-1,49.875,212.89844)"><tspan
           id="tspan450"
           y="0"
           x="0 6.6719999 13.344">100</tspan></text>
<path
         id="path452"
         style="fill:#000000;fill-opacity:1;fill-rule:nonzero;stroke:#000000;stroke-width:0.5;stroke-linecap:butt;stroke-linejoin:round;stroke-miterlimit:10;stroke-dasharray:none;stroke-opacity:1"
         d="m 72,302.4 4,0" /><path
         id="path454"
         style="fill:#000000;fill-opacity:1;fill-rule:nonzero;stroke:#000000;stroke-width:0.5;stroke-linecap:butt;stroke-linejoin:round;stroke-miterlimit:10;stroke-dasharray:none;stroke-opacity:1"
         d="m 518.4,302.4 -4,0" /><text
         id="text456"
         style="font-variant:normal;font-weight:normal;font-size:12px;font-family:Arial;-inkscape-font-specification:ArialMT;writing-mode:lr-tb;fill:#000000;fill-opacity:1;fill-rule:nonzero;stroke:none"
         transform="matrix(1,0,0,-1,49.875,299.29844)"><tspan
           id="tspan458"
           y="0"
           x="0 6.6719999 13.344">150</tspan></text>
<path
         id="path460"
         style="fill:#000000;fill-opacity:1;fill-rule:nonzero;stroke:#000000;stroke-width:0.5;stroke-linecap:butt;stroke-linejoin:round;stroke-miterlimit:10;stroke-dasharray:none;stroke-opacity:1"
         d="m 72,388.8 4,0" /><path
         id="path462"
         style="fill:#000000;fill-opacity:1;fill-rule:nonzero;stroke:#000000;stroke-width:0.5;stroke-linecap:butt;stroke-linejoin:round;stroke-miterlimit:10;stroke-dasharray:none;stroke-opacity:1"
         d="m 518.4,388.8 -4,0" /><text
         id="text464"
         style="font-variant:normal;font-weight:normal;font-size:12px;font-family:Arial;-inkscape-font-specification:ArialMT;writing-mode:lr-tb;fill:#000000;fill-opacity:1;fill-rule:nonzero;stroke:none"
         transform="matrix(1,0,0,-1,48.921875,385.69844)"><tspan
           id="tspan466"
           y="0"
           x="0 6.6719999 13.344">200</tspan></text>
<text
         id="text468"
         style="font-variant:normal;font-weight:normal;font-size:12px;font-family:Arial;-inkscape-font-specification:ArialMT;writing-mode:lr-tb;fill:#000000;fill-opacity:1;fill-rule:nonzero;stroke:none"
         transform="matrix(0,1,1,0,41.390625,196.21875)"><tspan
           id="tspan470"
           y="0"
           x="0 3.336 6 15.996 22.667999 26.004 30 36">time (s)</tspan></text>
<path
         id="path472"
         style="fill:none;stroke:#000000;stroke-width:1;stroke-linecap:butt;stroke-linejoin:round;stroke-miterlimit:10;stroke-dasharray:none;stroke-opacity:1"
         d="m 72,388.8 446.4,0" /><path
         id="path474"
         style="fill:none;stroke:#000000;stroke-width:1;stroke-linecap:butt;stroke-linejoin:round;stroke-miterlimit:10;stroke-dasharray:none;stroke-opacity:1"
         d="m 518.4,43.2 0,345.6" /><path
         id="path476"
         style="fill:none;stroke:#000000;stroke-width:1;stroke-linecap:butt;stroke-linejoin:round;stroke-miterlimit:10;stroke-dasharray:none;stroke-opacity:1"
         d="m 72,43.2 446.4,0" /><path
         id="path478"
         style="fill:none;stroke:#000000;stroke-width:1;stroke-linecap:butt;stroke-linejoin:round;stroke-miterlimit:10;stroke-dasharray:none;stroke-opacity:1"
         d="m 72,43.2 0,345.6" /><text
         id="text480"
         style="font-variant:normal;font-weight:normal;font-size:14.39999962px;font-family:Arial;-inkscape-font-specification:ArialMT;writing-mode:lr-tb;fill:#000000;fill-opacity:1;fill-rule:nonzero;stroke:none"
         transform="matrix(1,0,0,-1,59.848437,400.712)"><tspan
           id="tspan482"
           y="0"
           x="0 13.5936 21.6 29.6064 36.8064 40.809601 48.009602 55.209599 63.216 66.412804 69.609596 77.615997 85.622398 89.625603 97.632004 101.6352 105.6384 116.0352 127.2384 135.2448 144.0432 148.0464 158.44321 162.4464 172.05119 180.0576 183.25439 190.45441 197.6544 205.6608 213.66721 217.67039 224.87041 232.8768 236.07359 243.27361 251.28 256.0752 260.0784 268.08481 276.09119 280.09439 289.69919 300.09601 310.4928 320.88959 330.49438 340.8912 344.89441 349.68961 359.2944 368.8992 377.6976 387.3024 394.50241 398.50562 408.9024 420.10559 424.1088 435.31201 444.91681 456.91199 468.1152">Weak scaling of DOLFIN Poisson solver on ARCHER (PETSc/CG/GAMG)</tspan></text>
<path
         id="path484"
         style="fill:#ffffff;fill-opacity:1;fill-rule:nonzero;stroke:#000000;stroke-width:1;stroke-linecap:butt;stroke-linejoin:round;stroke-miterlimit:10;stroke-dasharray:none;stroke-opacity:1"
         d="m 79.2,276.86625 145.99625,0 0,104.73375 -145.99625,0 0,-104.73375 z" /><path
         id="path486"
         style="fill:#ff0000;fill-opacity:1;fill-rule:nonzero;stroke:#000000;stroke-width:1;stroke-linecap:butt;stroke-linejoin:round;stroke-miterlimit:10;stroke-dasharray:none;stroke-opacity:1"
         d="m 84.96,365.76 28.8,0 0,10.08 -28.8,0 0,-10.08 z" /><text
         id="text488"
         style="font-variant:normal;font-weight:normal;font-size:14.39999962px;font-family:Arial;-inkscape-font-specification:ArialMT;writing-mode:lr-tb;fill:#000000;fill-opacity:1;fill-rule:nonzero;stroke:none"
         transform="matrix(1,0,0,-1,125.28,365.76)"><tspan
           id="tspan490"
           y="0"
           x="0 13.5936 21.6 24.796801 27.993601 31.996799 36 39.1968 51.192001">Wall time</tspan></text>
<path
         id="path492"
         style="fill:#008000;fill-opacity:1;fill-rule:nonzero;stroke:#000000;stroke-width:1;stroke-linecap:butt;stroke-linejoin:round;stroke-miterlimit:10;stroke-dasharray:none;stroke-opacity:1"
         d="m 84.96,345.59125 28.8,0 0,10.08 -28.8,0 0,-10.08 z" /><text
         id="text494"
         style="font-variant:normal;font-weight:normal;font-size:14.39999962px;font-family:Arial;-inkscape-font-specification:ArialMT;writing-mode:lr-tb;fill:#000000;fill-opacity:1;fill-rule:nonzero;stroke:none"
         transform="matrix(1,0,0,-1,125.28,345.59125)"><tspan
           id="tspan496"
           y="0"
           x="0 8.7983999 16.8048 24.811199 32.0112 36.0144 39.211201 47.217602 55.223999 64.828796 72.835197 80.841599 88.041603">FunctionSpace</tspan></text>
<path
         id="path498"
         style="fill:#0000ff;fill-opacity:1;fill-rule:nonzero;stroke:#000000;stroke-width:1;stroke-linecap:butt;stroke-linejoin:round;stroke-miterlimit:10;stroke-dasharray:none;stroke-opacity:1"
         d="m 84.96,325.53 28.8,0 0,10.08 -28.8,0 0,-10.08 z" /><text
         id="text500"
         style="font-variant:normal;font-weight:normal;font-size:14.39999962px;font-family:Arial;-inkscape-font-specification:ArialMT;writing-mode:lr-tb;fill:#000000;fill-opacity:1;fill-rule:nonzero;stroke:none"
         transform="matrix(1,0,0,-1,125.28,325.53)"><tspan
           id="tspan502"
           y="0"
           x="0 9.6048002 16.8048 24.004801 32.0112 44.006401 52.012798 55.209599">Assemble</tspan></text>
<path
         id="path504"
         style="fill:#ffff00;fill-opacity:1;fill-rule:nonzero;stroke:#000000;stroke-width:1;stroke-linecap:butt;stroke-linejoin:round;stroke-miterlimit:10;stroke-dasharray:none;stroke-opacity:1"
         d="m 84.96,305.46875 28.8,0 0,10.08 -28.8,0 0,-10.08 z" /><text
         id="text506"
         style="font-variant:normal;font-weight:normal;font-size:14.39999962px;font-family:Arial;-inkscape-font-specification:ArialMT;writing-mode:lr-tb;fill:#000000;fill-opacity:1;fill-rule:nonzero;stroke:none"
         transform="matrix(1,0,0,-1,125.28,305.46875)"><tspan
           id="tspan508"
           y="0"
           x="0 9.6048002 17.6112 20.808001 28.007999">Solve</tspan></text>
<path
         id="path510"
         style="fill:#00ffff;fill-opacity:1;fill-rule:nonzero;stroke:#000000;stroke-width:1;stroke-linecap:butt;stroke-linejoin:round;stroke-miterlimit:10;stroke-dasharray:none;stroke-opacity:1"
         d="m 84.96,285.4075 28.8,0 0,10.08 -28.8,0 0,-10.08 z" /><text
         id="text512"
         style="font-variant:normal;font-weight:normal;font-size:14.39999962px;font-family:Arial;-inkscape-font-specification:ArialMT;writing-mode:lr-tb;fill:#000000;fill-opacity:1;fill-rule:nonzero;stroke:none"
         transform="matrix(1,0,0,-1,125.28,285.4075)"><tspan
           id="tspan514"
           y="0"
           x="0 9.6048002 17.6112 20.808001 24.004801 32.0112 36.0144 48.009602 56.015999 63.216">Build Mesh</tspan></text>
</g></g></svg>